PathFileType	4	(X/Y/Z)	C:\Users\Basilio\Documents\Thesis Gigler\squatting_fais\c3dfiles\019\SJ_pre5\markers_experimental.trc
DataRate	CameraRate	NumFrames	NumMarkers	Units	OrigDataRate	OrigDataStartFrame	OrigNumFrames
200.000000	200.000000	4	59	mm	200.000000	1140	1303
Frame#	Time	FHD			LBHD			RBHD			C7			T10			CLAV			LSHO			LUUPA			LMUPA			LDUPA			LLEP			LMEP			LRAD			LUL			LRFIN			RSHO			RUPA1			RMUPA			RDUPA			RLEP			RMEP			RRAD			RUL			RUFIN			LASI			USACR			LSACR			RSACR			LTHI1			LTHI2			LTHI3			LTHI4			LLFC			LTIB1			LTIB2			LTIB3			LTIB4			LLMAL			LMMAL			LHEE			LMT1			LMT2			LMT5			RTHI			RTHI2			RTHI3			RTHI4			RLFC			RTIB1			RTIB2			RTIB3			RTIB4			RLMAL			RMMAL			RHEE			RMT1			RMT2			RMT5			RASI			
		X1	Y1	Z1	X2	Y2	Z2	X3	Y3	Z3	X4	Y4	Z4	X5	Y5	Z5	X6	Y6	Z6	X7	Y7	Z7	X8	Y8	Z8	X9	Y9	Z9	X10	Y10	Z10	X11	Y11	Z11	X12	Y12	Z12	X13	Y13	Z13	X14	Y14	Z14	X15	Y15	Z15	X16	Y16	Z16	X17	Y17	Z17	X18	Y18	Z18	X19	Y19	Z19	X20	Y20	Z20	X21	Y21	Z21	X22	Y22	Z22	X23	Y23	Z23	X24	Y24	Z24	X25	Y25	Z25	X26	Y26	Z26	X27	Y27	Z27	X28	Y28	Z28	X29	Y29	Z29	X30	Y30	Z30	X31	Y31	Z31	X32	Y32	Z32	X33	Y33	Z33	X34	Y34	Z34	X35	Y35	Z35	X36	Y36	Z36	X37	Y37	Z37	X38	Y38	Z38	X39	Y39	Z39	X40	Y40	Z40	X41	Y41	Z41	X42	Y42	Z42	X43	Y43	Z43	X44	Y44	Z44	X45	Y45	Z45	X46	Y46	Z46	X47	Y47	Z47	X48	Y48	Z48	X49	Y49	Z49	X50	Y50	Z50	X51	Y51	Z51	X52	Y52	Z52	X53	Y53	Z53	X54	Y54	Z54	X55	Y55	Z55	X56	Y56	Z56	X57	Y57	Z57	X58	Y58	Z58	X59	Y59	Z59	

1141	5.7	-120.0331726074219	1685.733642578125	-865.4934692382815	-252.5856475830079	1635.142944335938	-998.8625488281252	-246.0364990234376	1630.69873046875	-859.866882324219	-276.3641967773438	1472.680786132813	-927.102722167969	-316.4828186035157	1175.751708984375	-932.5982055664065	-140.03515625	1418.184326171875	-933.732604980469	-214.2221069335938	1463.240112304688	-1083.396240234375	-224.6828765869141	1319.781372070313	-1187.373046875	-212.1116180419922	1277.784545898438	-1164.02587890625	-231.5253143310547	1259.793090820313	-1217.855224609375	-264.1074829101563	1205.389282226563	-1272.821044921875	-322.7864685058594	1184.441040039063	-1245.391235351563	-204.9866027832032	988.2119140625002	-1147.76708984375	-182.0010528564453	972.3186035156252	-1208.864013671875	-164.4659118652344	962.1843872070315	-1111.554931640625	-200.4990234375001	1457.420288085938	-786.9410400390627	-286.1781311035157	1327.793579101563	-658.9832763671876	-250.3499298095704	1294.059814453125	-654.9781494140626	-293.2747497558594	1268.9130859375	-621.8696899414064	-293.9593200683594	1192.284423828125	-592.2073974609376	-352.2031250000001	1187.4462890625	-620.2795410156251	-234.3674621582032	986.9351196289065	-733.8057861328126	-212.6582794189454	962.8825683593752	-678.5581054687501	-184.0325012207032	958.3980712890627	-767.6370239257814	-154.4639739990235	970.8770751953127	-1050.69970703125	-311.3966674804688	1044.78125	-939.216247558594	-318.3003234863282	1012.742004394531	-967.2791748046877	-315.1127319335938	1012.886901855469	-909.4085083007815	-250.3054199218751	723.9724731445314	-1138.575927734375	-221.2246856689454	644.9932250976564	-1151.55615234375	-174.0091857910157	645.6621093750001	-1142.710815429688	-250.0409851074219	592.2117919921876	-1140.611206054688	-262.3927001953126	494.4749755859376	-1136.552856445313	-228.940658569336	349.0681762695313	-1129.349731445313	-297.2353515625001	319.5293273925782	-1174.549194335938	-258.4188537597657	308.3247680664063	-1160.232299804688	-263.7698059082032	225.6839447021485	-1136.329956054688	-355.8639221191407	107.8590393066407	-1160.379516601563	-321.8106079101563	101.2578048706055	-1084.889526367188	-409.5302734375001	52.79330062866212	-1110.095336914063	-191.20361328125	56.37943649291994	-1134.552490234375	-195.9159851074219	56.09643173217775	-1173.944946289063	-247.8865814208985	34.9516830444336	-1219.719360351563	-225.4314422607422	786.8930664062502	-747.6606445312501	-194.7027282714844	727.2466430664064	-742.4758911132814	-164.2730255126953	725.0848388671876	-756.2719116210939	-227.6485748291016	654.0223388671876	-729.6914062500001	-279.9477233886719	494.0165100097657	-743.0631713867189	-243.9236755371094	306.6180419921876	-751.9772949218751	-317.9014282226563	239.5443115234376	-704.4532470703126	-276.8530883789063	231.0580596923829	-722.4353027343751	-275.8482360839844	182.7714996337891	-755.2474975585939	-352.9803771972657	104.6948776245117	-720.4797973632814	-313.1856994628907	96.86788177490237	-785.8189086914065	-391.8207397460939	46.54855346679688	-777.8897094726565	-191.37255859375	52.21983718872072	-717.0432128906251	-203.8352813720704	58.45653152465822	-673.3973999023439	-259.3001098632813	40.97737503051759	-636.6696166992189	nan	nan	nan	
1142	5.705	-120.707633972168	1685.95947265625	-863.6827392578127	-252.6805114746094	1634.7978515625	-998.8535156250002	-246.8083953857422	1630.63916015625	-859.7807617187502	-276.8016052246094	1472.549682617188	-926.8816528320315	-316.6667175292969	1175.74951171875	-932.650329589844	-140.5500183105469	1418.168579101563	-933.5364990234377	-214.7671661376954	1463.1455078125	-1083.130615234375	-225.0304260253907	1319.7958984375	-1187.191284179688	-212.5055084228516	1277.763793945313	-1163.847534179688	-231.7757873535157	1259.794189453125	-1217.663940429688	-264.2686462402344	1205.405883789063	-1272.698120117188	-323.0709228515626	1184.337646484375	-1245.348266601563	-204.8687744140626	988.3321533203127	-1147.62109375	-181.7923431396485	972.5080566406252	-1208.68017578125	-164.423583984375	962.2561035156252	-1111.295776367188	-200.8482360839844	1457.418701171875	-786.7875976562502	-286.4127197265626	1327.804809570313	-658.7321777343751	-250.5254974365235	1293.993408203125	-654.7043457031251	-293.5248413085938	1268.779418945313	-621.6173095703126	-294.1997985839844	1192.075439453125	-591.8484497070314	-352.3668212890626	1187.362426757813	-620.0083007812501	-234.6170959472657	986.972595214844	-733.7884521484376	-212.9207153320313	962.8281250000002	-678.5804443359376	-184.2087860107422	958.5054321289065	-767.6779785156251	-154.4371185302735	970.890808105469	-1050.522705078125	-311.4808959960938	1044.809814453125	-939.3302001953127	-318.7872619628907	1012.979675292969	-967.438171386719	-315.3110351562501	1012.888305664063	-909.515808105469	-250.5823974609376	724.1044311523439	-1138.576293945313	-221.3093872070313	645.2042236328126	-1151.491577148438	-174.1494140625	645.5925292968751	-1142.494018554688	-250.3601989746094	592.2489013671876	-1140.59326171875	-262.6473999023438	494.5195617675782	-1136.373046875	-229.3217315673829	349.1724548339844	-1129.321655273438	-297.5515441894532	319.5732727050782	-1174.541870117188	-258.6524353027344	308.3687744140626	-1160.12451171875	-264.0402832031251	225.6380462646485	-1136.179321289063	-355.7350463867188	107.5893936157227	-1160.461303710938	-321.9437561035157	101.2637329101563	-1084.95703125	-409.5663146972657	52.82426071166994	-1110.105346679688	-192.6981964111329	55.97668075561525	-1135.114868164063	-197.7949523925782	56.23414611816408	-1174.797241210938	-248.0049743652344	34.98229217529298	-1219.744506835938	-225.9631042480469	786.9505004882815	-747.5892333984376	-195.1895751953126	727.2443847656251	-742.4053955078126	-164.6510620117188	724.8358154296876	-756.1859741210939	-228.2535552978516	654.0348510742189	-729.6835937500001	-280.7138671875001	494.1440734863282	-743.2512817382814	-244.3975067138672	306.8283386230469	-751.9515991210939	-318.1826477050782	239.5430145263672	-704.5003662109376	-277.1310424804688	231.1713867187501	-722.4830932617189	-276.0873718261719	182.7925720214844	-755.3063964843751	-353.0576782226563	104.782943725586	-720.0573120117189	-313.0320739746094	96.91541290283206	-786.020690917969	-391.793182373047	46.4167594909668	-777.957702636719	-191.3711242675782	52.27974319458009	-716.9699096679689	-203.8008117675782	58.4203453063965	-673.3743286132814	-259.3265075683594	40.99473190307618	-636.6480102539064	nan	nan	nan	
1143	5.71	-121.714340209961	1686.543701171875	-862.1324462890627	-253.5373229980469	1634.728637695313	-998.8294677734377	-247.6930694580079	1630.522338867188	-859.6868286132815	-277.1961059570313	1472.508422851563	-926.5369262695315	-316.8850708007813	1175.691162109375	-932.6016845703127	-140.8625946044922	1418.199951171875	-933.260681152344	-215.2155914306641	1463.06005859375	-1082.798217773438	-225.3831939697266	1319.788940429688	-1186.93896484375	-212.6831207275391	1277.703491210938	-1163.632080078125	-232.084701538086	1259.775512695313	-1217.4755859375	-264.4955139160157	1205.444213867188	-1272.58251953125	-323.2586059570313	1184.316528320313	-1245.272705078125	-204.7813415527344	988.5025634765627	-1147.422729492188	-181.6192474365235	972.7512817382815	-1208.485473632813	-164.3474273681641	962.4003906250002	-1111.000244140625	-201.1396942138672	1457.39306640625	-786.499938964844	-286.6182861328126	1327.815185546875	-658.3927612304689	-250.7322387695313	1293.92724609375	-654.4899902343751	-293.8803710937501	1268.603759765625	-621.3949584960939	-294.3279418945313	1191.755737304688	-591.7907104492189	-352.4737854003907	1187.292724609375	-619.6721801757814	-234.9152069091797	987.0159912109377	-733.7332763671876	-213.1830444335938	962.7734375000002	-678.6027832031251	-184.4427642822266	958.6331787109377	-767.6378173828126	-154.3716430664063	970.8002929687502	-1050.360229492188	-311.6463317871094	1044.769165039063	-939.519470214844	-318.8161315917969	1012.972229003906	-967.5278930664065	-315.5018005371094	1012.9482421875	-909.6140747070315	-250.4842224121094	724.0675048828126	-1138.359497070313	-221.2971191406251	644.6790771484376	-1151.066284179688	-174.1873168945313	645.3661499023439	-1142.309448242188	-250.5072937011719	592.2643432617189	-1140.39111328125	-263.0570373535157	494.5541992187501	-1136.256958007813	-229.5837860107422	349.2283325195313	-1129.167846679688	-297.5829772949219	319.5146789550782	-1174.473876953125	-258.9088745117188	308.4175415039063	-1160.089111328125	-264.1418762207032	225.7725982666016	-1136.085327148438	-356.0125427246094	107.8449478149414	-1160.474609375	-321.8106079101563	101.1448516845703	-1085.05322265625	-409.5423278808595	52.77638244628908	-1110.156127929688	-192.6827392578126	55.96020507812501	-1135.193969726563	-197.8150939941407	56.27542114257814	-1174.970703125	-248.0108642578126	34.94640350341798	-1219.781005859375	-226.5661163330079	787.0971679687502	-747.4933471679689	-195.6565399169922	727.3221435546876	-742.1800537109376	-165.2584686279297	724.9274902343751	-756.0541381835939	-228.8065490722657	654.1354980468751	-729.5621948242189	-281.4272460937501	494.3423461914064	-743.3330688476564	-244.8967742919922	306.9583129882813	-751.9649658203126	-318.4896545410157	239.5910797119141	-704.5048217773439	-277.5771789550782	231.2573547363282	-722.4808349609376	-276.3344421386719	182.8813171386719	-755.2655029296876	-353.1499328613282	104.7331695556641	-720.0311279296876	-313.2511596679688	96.91251373291018	-785.734313964844	-391.9442749023439	46.56811904907227	-777.8916015625002	-191.4838409423828	52.31070709228517	-717.0565185546876	-203.6729431152344	58.4047317504883	-673.3455810546876	-259.3753967285157	41.03116989135743	-636.6365966796876	nan	nan	nan	
1144	5.715	-122.7166061401367	1686.8359375	-862.7781372070315	-254.4750213623047	1634.777709960938	-998.7165527343752	-248.4553527832032	1630.641479492188	-859.494079589844	-277.4648437500001	1472.464965820313	-926.265563964844	-316.9893188476563	1175.620727539063	-932.6505126953127	-141.365966796875	1418.232421875	-932.9766845703127	-215.7860107421876	1462.964599609375	-1082.541870117188	-225.7882232666016	1319.796752929688	-1186.715942382813	-213.0058746337891	1277.774169921875	-1163.46044921875	-232.3737030029297	1259.77294921875	-1217.320556640625	-264.6901855468751	1205.47607421875	-1272.486938476563	-323.5200195312501	1184.193481445313	-1245.196899414063	-204.8339385986329	988.887390136719	-1147.223266601563	-181.4267120361328	973.0435180664065	-1208.241088867188	-164.4066925048828	962.485534667969	-1110.773315429688	-201.6271209716797	1457.306030273438	-786.1822509765627	-286.7427368164063	1327.719360351563	-658.0567626953126	-250.8115386962891	1294.049926757813	-654.2551879882814	-294.0594177246094	1268.482543945313	-621.0294189453126	-294.5254821777344	1191.906982421875	-591.4730834960939	-352.7702331542969	1187.251342773438	-619.3347778320314	-235.1350097656251	987.029968261719	-733.6709594726564	-213.4428253173829	962.7217407226565	-678.5679321289064	-184.6695709228516	958.8612060546877	-767.4722900390626	-154.3236389160157	970.8251953125002	-1050.199096679688	-311.7929992675782	1044.7998046875	-939.6439208984377	-319.1363830566407	1013.202026367188	-967.670837402344	-315.6628723144532	1013.029541015625	-909.6230468750002	-250.7261657714844	724.1132202148439	-1138.3017578125	-221.4982910156251	644.7067871093751	-1150.875854492188	-174.3812255859375	645.3084106445314	-1142.034545898438	-250.7956085205079	592.2729492187501	-1140.348022460938	-263.4136657714844	494.5909423828126	-1136.127807617188	-229.7541809082032	349.3693237304688	-1129.228271484375	-297.7443542480469	319.5684814453126	-1174.421264648438	-259.1242370605469	308.5808410644532	-1160.09423828125	-264.4184265136719	225.7652130126954	-1135.930419921875	-355.8216552734376	107.5804901123047	-1160.525756835938	-321.8454284667969	101.1260147094727	-1085.095947265625	-409.5990295410157	52.82593917846681	-1110.215698242188	-191.2159576416016	56.35037994384767	-1134.488403320313	-197.0606079101563	56.017391204834	-1174.782592773438	-248.0199432373047	34.9659652709961	-1219.77001953125	-227.1481018066407	787.2182617187502	-747.3983154296876	-196.2099304199219	727.4057617187501	-742.0007934570314	-165.8899841308594	724.9743652343751	-755.9122314453126	-229.4269104003907	654.1495971679689	-729.5557250976564	-282.0605163574219	494.3784790039064	-743.3278198242189	-245.3291625976563	307.1862487792969	-751.9506225585939	-318.8546447753907	239.6255340576172	-704.5537109375001	-277.8137817382813	231.3705444335938	-722.4330444335939	-276.4104003906251	182.9678802490235	-755.1794433593751	-353.1874694824219	104.5619735717774	-720.2302246093751	-313.2820434570313	96.86202239990237	-785.6878051757815	-391.8976440429689	46.4687614440918	-777.9011230468752	-191.3976440429688	52.28922653198244	-717.0275268554689	-204.2044067382813	58.65170288085939	-673.3991088867189	-259.4125366210938	41.06290817260743	-636.6367187500001	nan	nan	nan	
